/* XPM */
static const char *error_xpm[] = {
/* width height num_colors chars_per_pixel */
"    40    32        3            1",
/* colors */
". c #ffffff",
"# c #ff00ff",
"a c #000000",
/* pixels */
".#######################################",
".#######################################",
".#######################################",
".#######################################",
".#######################################",
".#######################################",
".#######################################",
".#######################################",
".#######################################",
".#######################################",
".#######################################",
".#######################################",
".#######################################",
".#####aa##a#aaa#aa##aa##a#aa############",
".####a##a##aa##aa##a##a##aa#############",
".####aaaa##a###a###a##a##a##############",
".####a#####a###a###a##a##a##############",
".####aa##a#a###a###a##a##a##############",
".#####aaa#aaa#aaa###aa##aaa#############",
".#######################################",
".#######################################",
".#######################################",
".#######################################",
".#######################################",
".#######################################",
".#######################################",
".#######################################",
".#######################################",
".#######################################",
".#######################################",
".#######################################",
".#######################################"
};
